<svg id="117164526" viewBox="0 -13 350.00000000000006 269.8229875584522" height="269.8229875584522" width="350.00000000000006" style="width: 350px; height: 269.823px; position: absolute; top: 50%; left: 50%; transform: translate(-50%, -50%) scale(0.820538); z-index: 0; cursor: pointer;"><defs id="SvgjsDefs1013"></defs><g id="SvgjsG1014" featurekey="YvLwfh-0" transform="matrix(2,0,0,2,75,-33)" fill="#25bcf8"><path xmlns="http://www.w3.org/2000/svg" d="M50,10L15,30v40l35,20l34.99-19.994L85,69.99V30L50,10z M50,17.699L74.89,31.92l-6.732,3.848L50,25.397L31.846,35.771  l-6.738-3.851L50,17.699z M64.795,41.546v13.059L53.369,48.08V35.02L64.795,41.546z M46.631,35.02v13.057l-11.423,6.527V41.546  L46.631,35.02z M46.631,80.377L21.735,66.152v-28.46l6.734,3.848v20.761L46.631,72.68V80.377z M38.571,60.377l11.426-6.529  l11.429,6.529L50,66.904L38.571,60.377z M78.265,66.152L53.369,80.377V72.68L71.53,62.305V41.54l6.734-3.848V66.152z"></path></g><g id="SvgjsG1015" featurekey="JZW510-0" transform="matrix(2.878289222717285,0,0,2.878289222717285,-2.1874983530297385,163.53618804623338)" fill="#eafff7"><path d="M6.04 9.38 c1.4 0 2.54 0.35664 3.42 1.07 s1.36 1.6633 1.44 2.85 l-2.78 0 c-0.18666 -1.1867 -0.88666 -1.78 -2.1 -1.78 c-0.74666 0 -1.3367 0.30666 -1.77 0.92 s-0.65 1.4267 -0.65 2.44 c0 0.97334 0.20666 1.76 0.62 2.36 s0.99334 0.9 1.74 0.9 c1.2933 0 2.0466 -0.7 2.26 -2.1 l2.74 0 c-0.18666 1.3733 -0.71666 2.4234 -1.59 3.15 s-2.0034 1.09 -3.39 1.09 c-1.5333 0 -2.7866 -0.49 -3.76 -1.47 s-1.46 -2.2566 -1.46 -3.83 c0 -1.7067 0.48 -3.0666 1.44 -4.08 s2.24 -1.52 3.84 -1.52 z M17.58 9.38 c1.6533 0 2.96 0.50334 3.92 1.51 s1.44 2.3234 1.44 3.95 c0 1.64 -0.49 2.9566 -1.47 3.95 s-2.2766 1.49 -3.89 1.49 c-1.64 0 -2.94 -0.50334 -3.9 -1.51 s-1.44 -2.3166 -1.44 -3.93 c0 -1.6667 0.49 -2.9934 1.47 -3.98 s2.27 -1.48 3.87 -1.48 z M15.08 14.84 c0 1.0533 0.21334 1.8666 0.64 2.44 s1.0467 0.86 1.86 0.86 c0.84 0 1.47 -0.29334 1.89 -0.88 s0.63 -1.3933 0.63 -2.42 c0 -1.0667 -0.21666 -1.8867 -0.65 -2.46 s-1.0633 -0.86 -1.89 -0.86 c-0.8 0 -1.4133 0.28666 -1.84 0.86 s-0.64 1.3933 -0.64 2.46 z M34.86 5.720000000000001 l0 14.28 l-2.7 0 l0 -1.32 l-0.04 0 c-0.61334 1.0667 -1.66 1.6 -3.14 1.6 c-1.4267 0 -2.5566 -0.52 -3.39 -1.56 s-1.25 -2.3666 -1.25 -3.98 c0 -1.5733 0.42334 -2.86 1.27 -3.86 s1.95 -1.5 3.31 -1.5 c0.62666 0 1.2167 0.13 1.77 0.39 s0.98334 0.64334 1.29 1.15 l0.04 0 l0 -5.2 l2.84 0 z M27.180000000000003 14.82 c0 0.94666 0.22332 1.7367 0.66998 2.37 s1.0567 0.95 1.83 0.95 c0.81334 0 1.4233 -0.29666 1.83 -0.89 s0.61 -1.41 0.61 -2.45 s-0.21334 -1.8467 -0.64 -2.42 s-1.0333 -0.86 -1.82 -0.86 c-0.81334 0 -1.43 0.3 -1.85 0.9 s-0.63 1.4 -0.63 2.4 z M41.78 9.38 c0.97334 0 1.84 0.22664 2.6 0.67998 s1.3567 1.11 1.79 1.97 s0.65 1.85 0.65 2.97 c0 0.10666 -0.0066602 0.28 -0.02 0.52 l-7.46 0 c0.02666 0.82666 0.24332 1.47 0.64998 1.93 s1.03 0.69 1.87 0.69 c0.52 0 0.99666 -0.13 1.43 -0.39 s0.71 -0.57666 0.83 -0.95 l2.5 0 c-0.73334 2.32 -2.3466 3.48 -4.84 3.48 c-0.94666 -0.01334 -1.8233 -0.22 -2.63 -0.62 s-1.45 -1.0233 -1.93 -1.87 s-0.72 -1.83 -0.72 -2.95 c0 -1.0533 0.24334 -2.0134 0.73 -2.88 s1.1333 -1.5133 1.94 -1.94 s1.6767 -0.64 2.61 -0.64 z M43.96 13.719999999999999 c-0.13334 -0.77334 -0.38 -1.3333 -0.74 -1.68 s-0.87334 -0.52 -1.54 -0.52 c-0.69334 0 -1.24 0.19666 -1.64 0.59 s-0.63334 0.93 -0.7 1.61 l4.62 0 z M60.080000000000005 9.38 c0.24 0 0.44668 0.03334 0.62002 0.1 l0 2.64 c-0.30666 -0.06666 -0.64666 -0.1 -1.02 -0.1 c-1.8667 0 -2.8 1.1067 -2.8 3.32 l0 4.66 l-2.84 0 l0 -10.34 l2.7 0 l0 1.92 l0.04 0 c0.28 -0.66666 0.72334 -1.2 1.33 -1.6 s1.2633 -0.6 1.97 -0.6 z M66.24000000000001 9.38 c0.97334 0 1.84 0.22664 2.6 0.67998 s1.3567 1.11 1.79 1.97 s0.65 1.85 0.65 2.97 c0 0.10666 -0.0066602 0.28 -0.02 0.52 l-7.46 0 c0.02666 0.82666 0.24332 1.47 0.64998 1.93 s1.03 0.69 1.87 0.69 c0.52 0 0.99666 -0.13 1.43 -0.39 s0.71 -0.57666 0.83 -0.95 l2.5 0 c-0.73334 2.32 -2.3466 3.48 -4.84 3.48 c-0.94666 -0.01334 -1.8233 -0.22 -2.63 -0.62 s-1.45 -1.0233 -1.93 -1.87 s-0.72 -1.83 -0.72 -2.95 c0 -1.0533 0.24334 -2.0134 0.73 -2.88 s1.1333 -1.5133 1.94 -1.94 s1.6767 -0.64 2.61 -0.64 z M68.42000000000002 13.719999999999999 c-0.13334 -0.77334 -0.38 -1.3333 -0.74 -1.68 s-0.87334 -0.52 -1.54 -0.52 c-0.69334 0 -1.24 0.19666 -1.64 0.59 s-0.63334 0.93 -0.7 1.61 l4.62 0 z M77.90000000000002 9.38 c1.4 0 2.54 0.35664 3.42 1.07 s1.36 1.6633 1.44 2.85 l-2.78 0 c-0.18666 -1.1867 -0.88666 -1.78 -2.1 -1.78 c-0.74666 0 -1.3367 0.30666 -1.77 0.92 s-0.65 1.4267 -0.65 2.44 c0 0.97334 0.20666 1.76 0.62 2.36 s0.99334 0.9 1.74 0.9 c1.2933 0 2.0466 -0.7 2.26 -2.1 l2.74 0 c-0.18666 1.3733 -0.71666 2.4234 -1.59 3.15 s-2.0034 1.09 -3.39 1.09 c-1.5333 0 -2.7866 -0.49 -3.76 -1.47 s-1.46 -2.2566 -1.46 -3.83 c0 -1.7067 0.48 -3.0666 1.44 -4.08 s2.24 -1.52 3.84 -1.52 z M87.34000000000002 5.720000000000001 l0 2.34 l-2.84 0 l0 -2.34 l2.84 0 z M87.34000000000002 9.66 l0 10.34 l-2.84 0 l0 -10.34 l2.84 0 z M95.40000000000002 9.38 c1.4267 0 2.5666 0.5 3.42 1.5 s1.28 2.3534 1.28 4.06 c0 1.56 -0.41 2.84 -1.23 3.84 s-1.9233 1.5 -3.31 1.5 c-1.36 0 -2.3934 -0.52 -3.1 -1.56 l-0.04 0 l0 4.92 l-2.84 0 l0 -13.98 l2.7 0 l0 1.32 l0.04 0 c0.68 -1.0667 1.7067 -1.6 3.08 -1.6 z M92.32000000000001 14.86 c0 1.0133 0.21336 1.8133 0.64002 2.4 s1.04 0.88 1.84 0.88 c0.82666 0 1.4433 -0.29334 1.85 -0.88 s0.61 -1.3867 0.61 -2.4 c0 -1.04 -0.22 -1.8567 -0.66 -2.45 s-1.0533 -0.89 -1.84 -0.89 s-1.39 0.29334 -1.81 0.88 s-0.63 1.4067 -0.63 2.46 z M106.58000000000001 9.38 c0.97334 0 1.84 0.22664 2.6 0.67998 s1.3567 1.11 1.79 1.97 s0.65 1.85 0.65 2.97 c0 0.10666 -0.0066602 0.28 -0.02 0.52 l-7.46 0 c0.02666 0.82666 0.24332 1.47 0.64998 1.93 s1.03 0.69 1.87 0.69 c0.52 0 0.99666 -0.13 1.43 -0.39 s0.71 -0.57666 0.83 -0.95 l2.5 0 c-0.73334 2.32 -2.3466 3.48 -4.84 3.48 c-0.94666 -0.01334 -1.8233 -0.22 -2.63 -0.62 s-1.45 -1.0233 -1.93 -1.87 s-0.72 -1.83 -0.72 -2.95 c0 -1.0533 0.24334 -2.0134 0.73 -2.88 s1.1333 -1.5133 1.94 -1.94 s1.6767 -0.64 2.61 -0.64 z M108.76000000000002 13.719999999999999 c-0.13334 -0.77334 -0.38 -1.3333 -0.74 -1.68 s-0.87334 -0.52 -1.54 -0.52 c-0.69334 0 -1.24 0.19666 -1.64 0.59 s-0.63334 0.93 -0.7 1.61 l4.62 0 z M117.52000000000001 9.38 c1.3867 0 2.47 0.28002 3.25 0.84002 s1.2167 1.38 1.31 2.46 l-2.7 0 c-0.04 -0.49334 -0.22 -0.85 -0.54 -1.07 s-0.78666 -0.33 -1.4 -0.33 c-0.53334 0 -0.93 0.08 -1.19 0.24 s-0.39 0.4 -0.39 0.72 c0 0.24 0.08666 0.44 0.26 0.6 s0.43668 0.3 0.79002 0.42 s0.74334 0.22 1.17 0.3 c1.2933 0.25334 2.2066 0.51334 2.74 0.78 s0.92334 0.58666 1.17 0.96 s0.37 0.83334 0.37 1.38 c0 1.16 -0.42334 2.05 -1.27 2.67 s-1.9967 0.93 -3.45 0.93 c-1.52 0 -2.7034 -0.32666 -3.55 -0.98 s-1.2833 -1.54 -1.31 -2.66 l2.7 0 c0 0.53334 0.20666 0.95668 0.62 1.27 s0.93334 0.47 1.56 0.47 c0.53334 0 0.97668 -0.11666 1.33 -0.35 s0.53 -0.55668 0.53 -0.97002 c0 -0.26666 -0.11 -0.48666 -0.33 -0.66 s-0.53 -0.32668 -0.93 -0.46002 s-1.02 -0.28668 -1.86 -0.46002 c-0.66666 -0.13334 -1.26 -0.31334 -1.78 -0.54 s-0.91666 -0.52332 -1.19 -0.88998 s-0.41 -0.81666 -0.41 -1.35 c0 -0.68 0.16334 -1.2733 0.49 -1.78 s0.82666 -0.89 1.5 -1.15 s1.51 -0.39 2.51 -0.39 z"></path></g><g id="SvgjsG1016" featurekey="zdvuGz-0" transform="matrix(0.5509145259857178,0,0,0.5509145259857178,34.65694171373488,245.74960488940985)" fill="#25bcf8"><path d="M10.92 19.66 c0.08 0.22 -0.04 0.34 -0.24 0.34 l-1.12 0 c-0.2 0 -0.3 -0.12 -0.38 -0.34 l-0.76 -2.6 l-5.28 0 l-0.76 2.6 c-0.06 0.22 -0.18 0.34 -0.38 0.34 l-1.12 0 c-0.2 0 -0.3 -0.12 -0.24 -0.34 l4.04 -13.34 c0.06 -0.2 0.2 -0.32 0.38 -0.32 l1.42 0 c0.18 0 0.32 0.12 0.38 0.32 z M3.58 15.54 l4.4 0 l-2.2 -7.42 z M26.6065 18.42 c0.2 0 0.3 0.1 0.3 0.3 l0 0.98 c0 0.2 -0.1 0.3 -0.3 0.3 l-6.94 0 c-0.2 0 -0.3 -0.1 -0.3 -0.3 l0 -13.4 c0 -0.2 0.1 -0.3 0.3 -0.3 l1.14 0 c0.2 0 0.3 0.1 0.3 0.3 l0 12.12 l5.5 0 z M44.733000000000004 12.54 c0.22 0 0.34 0.14 0.34 0.34 l0 3.06 c0 2.66 -1.38 4.16 -4.02 4.16 l-1.54 0 c-2.64 0 -4.02 -1.5 -4.02 -4.16 l0 -5.88 c0 -2.66 1.38 -4.16 4.02 -4.16 l1.54 0 c2.52 0 3.9 1.36 4.02 3.88 c0 0.22 -0.12 0.34 -0.34 0.34 l-1.04 0 c-0.22 0 -0.36 -0.12 -0.36 -0.34 c-0.08 -1.64 -0.78 -2.3 -2.28 -2.3 l-1.54 0 c-1.62 0 -2.28 0.74 -2.28 2.58 l0 5.88 c0 1.84 0.66 2.58 2.28 2.58 l1.54 0 c1.62 0 2.28 -0.74 2.28 -2.58 l0 -1.9 l-1.84 0 c-0.22 0 -0.34 -0.14 -0.34 -0.34 l0 -0.82 c0 -0.2 0.12 -0.34 0.34 -0.34 l3.24 0 z M59.899499999999996 5.9 c2.64 0 4.02 1.5 4.02 4.16 l0 5.88 c0 2.66 -1.38 4.16 -4.02 4.16 l-1.7 0 c-2.64 0 -4.02 -1.5 -4.02 -4.16 l0 -5.88 c0 -2.66 1.38 -4.16 4.02 -4.16 l1.7 0 z M62.1795 15.940000000000001 l0 -5.88 c0 -1.84 -0.68 -2.58 -2.28 -2.58 l-1.7 0 c-1.62 0 -2.28 0.74 -2.28 2.58 l0 5.88 c0 1.84 0.66 2.58 2.28 2.58 l1.7 0 c1.6 0 2.28 -0.74 2.28 -2.58 z M82.70599999999999 19.6 c0.1 0.24 -0.02 0.4 -0.28 0.4 l-1.12 0 c-0.18 0 -0.34 -0.08 -0.4 -0.26 l-2.02 -4.56 c-0.16 0.02 -0.32 0.02 -0.5 0.02 l-3.42 0 l0 4.5 c0 0.2 -0.1 0.3 -0.3 0.3 l-1.14 0 c-0.2 0 -0.3 -0.1 -0.3 -0.3 l0 -13.4 c0 -0.2 0.1 -0.3 0.3 -0.3 l1.14 0 l3.72 0 c2.6 0 3.96 1.4 3.96 4 l0 1.2 c0 1.74 -0.62 2.96 -1.82 3.56 z M74.966 13.620000000000001 l3.42 0 c1.56 0 2.22 -0.64 2.22 -2.42 l0 -1.2 c0 -1.78 -0.66 -2.42 -2.22 -2.42 l-3.42 0 l0 6.04 z M91.75249999999998 6.300000000000001 c0 -0.2 0.1 -0.3 0.3 -0.3 l1.16 0 c0.2 0 0.3 0.1 0.3 0.3 l0 13.4 c0 0.2 -0.1 0.3 -0.3 0.3 l-1.16 0 c-0.2 0 -0.3 -0.1 -0.3 -0.3 l0 -13.4 z M110.839 6 c0.2 0 0.3 0.1 0.3 0.3 l0 0.98 c0 0.2 -0.1 0.3 -0.3 0.3 l-3.16 0 l0 12.12 c0 0.2 -0.1 0.3 -0.3 0.3 l-1.14 0 c-0.2 0 -0.3 -0.1 -0.3 -0.3 l0 -12.12 l-3.18 0 c-0.2 0 -0.3 -0.1 -0.3 -0.3 l0 -0.98 c0 -0.2 0.1 -0.3 0.3 -0.3 l4.62 0 l3.46 0 z M128.82549999999998 6 c0.2 0 0.3 0.1 0.3 0.3 l0 13.4 c0 0.2 -0.1 0.3 -0.3 0.3 l-1.14 0 c-0.2 0 -0.3 -0.1 -0.3 -0.3 l0 -5.78 l-5.5 0 l0 5.78 c0 0.2 -0.1 0.3 -0.3 0.3 l-1.14 0 c-0.2 0 -0.3 -0.1 -0.3 -0.3 l0 -13.4 c0 -0.2 0.1 -0.3 0.3 -0.3 l1.14 0 c0.2 0 0.3 0.1 0.3 0.3 l0 6.04 l5.5 0 l0 -6.04 c0 -0.2 0.1 -0.3 0.3 -0.3 l1.14 0 z M150.37199999999999 6 c0.2 0 0.3 0.1 0.3 0.3 l0 13.4 c0 0.2 -0.1 0.3 -0.3 0.3 l-1.14 0 c-0.2 0 -0.3 -0.1 -0.3 -0.3 l0 -11.18 l-3.32 11.18 c-0.06 0.2 -0.2 0.3 -0.38 0.3 l-1.06 0 c-0.18 0 -0.32 -0.1 -0.38 -0.3 l-3.32 -11.18 l0 11.18 c0 0.2 -0.1 0.3 -0.3 0.3 l-1.14 0 c-0.2 0 -0.3 -0.1 -0.3 -0.3 l0 -13.4 c0 -0.2 0.1 -0.3 0.3 -0.3 l1.98 0 c0.2 0 0.34 0.1 0.4 0.3 l3.28 10.76 l3.32 -10.76 c0.06 -0.2 0.2 -0.3 0.4 -0.3 l1.96 0 z M164.85849999999996 11.94 c2.2 0.48 4.44 1.2 4.44 4.06 c0 2.66 -1.38 4.1 -4.02 4.1 l-1.48 0 c-2.52 0 -3.9 -1.36 -4.02 -3.82 c0 -0.22 0.12 -0.34 0.34 -0.34 l1.04 0 c0.22 0 0.36 0.12 0.36 0.34 c0.08 1.58 0.76 2.24 2.28 2.24 l1.48 0 c1.62 0 2.28 -0.68 2.28 -2.52 s-1.24 -2.1 -2.74 -2.46 l-0.88 -0.2 c-2.36 -0.52 -4 -1.26 -4 -3.8 c0 -2.48 1.42 -3.64 4.04 -3.64 l0.98 0 c2.48 0 3.8 1.36 3.92 3.76 c0.02 0.22 -0.12 0.34 -0.34 0.34 l-1.04 0 c-0.2 0 -0.34 -0.12 -0.36 -0.34 c-0.08 -1.54 -0.72 -2.18 -2.18 -2.18 l-0.98 0 c-1.6 0 -2.3 0.38 -2.3 2.06 c0 1.62 0.72 1.84 2.3 2.2 z M200.83149999999995 19.66 c0.08 0.22 -0.04 0.34 -0.24 0.34 l-1.12 0 c-0.2 0 -0.3 -0.12 -0.38 -0.34 l-0.76 -2.6 l-5.28 0 l-0.76 2.6 c-0.06 0.22 -0.18 0.34 -0.38 0.34 l-1.12 0 c-0.2 0 -0.3 -0.12 -0.24 -0.34 l4.04 -13.34 c0.06 -0.2 0.2 -0.32 0.38 -0.32 l1.42 0 c0.18 0 0.32 0.12 0.38 0.32 z M193.49149999999997 15.54 l4.4 0 l-2.2 -7.42 z M218.73799999999994 6 c0.2 0 0.3 0.1 0.3 0.3 l0 13.4 c0 0.2 -0.1 0.3 -0.3 0.3 l-1.76 0 c-0.16 0 -0.28 -0.06 -0.36 -0.22 l-5.2 -11.24 l0 11.16 c0 0.2 -0.1 0.3 -0.3 0.3 l-1.14 0 c-0.2 0 -0.3 -0.1 -0.3 -0.3 l0 -13.4 c0 -0.2 0.1 -0.3 0.3 -0.3 l1.76 0 c0.16 0 0.28 0.06 0.36 0.22 l5.2 11.22 l0 -11.14 c0 -0.2 0.1 -0.3 0.3 -0.3 l1.14 0 z M233.94449999999995 6 c2.56 0 3.92 1.4 3.92 3.96 l0 6.08 c0 2.56 -1.36 3.96 -3.92 3.96 l-4.28 0 l-0.72 0 c-0.2 0 -0.3 -0.1 -0.3 -0.3 l0 -13.4 c0 -0.2 0.1 -0.3 0.3 -0.3 l1.14 0 l3.86 0 z M236.12449999999995 16.04 l0 -6.08 c0 -1.74 -0.66 -2.38 -2.18 -2.38 l-3.56 0 l0 10.84 l3.56 0 c1.52 0 2.18 -0.64 2.18 -2.38 z M265.1775 6 c2.56 0 3.92 1.4 3.92 3.96 l0 6.08 c0 2.56 -1.36 3.96 -3.92 3.96 l-4.28 0 l-0.72 0 c-0.2 0 -0.3 -0.1 -0.3 -0.3 l0 -13.4 c0 -0.2 0.1 -0.3 0.3 -0.3 l1.14 0 l3.86 0 z M267.35749999999996 16.04 l0 -6.08 c0 -1.74 -0.66 -2.38 -2.18 -2.38 l-3.56 0 l0 10.84 l3.56 0 c1.52 0 2.18 -0.64 2.18 -2.38 z M285.964 7.58 l-6.02 0 l0 4.76 l4.6 0 c0.2 0 0.3 0.1 0.3 0.3 l0 0.98 c0 0.2 -0.1 0.3 -0.3 0.3 l-4.6 0 l0 4.5 l6.12 0 c0.2 0 0.3 0.1 0.3 0.3 l0 0.98 c0 0.2 -0.1 0.3 -0.3 0.3 l-7.56 0 c-0.2 0 -0.3 -0.1 -0.3 -0.3 l0 -13.4 c0 -0.2 0.1 -0.3 0.3 -0.3 l7.46 0 c0.2 0 0.3 0.1 0.3 0.3 l0 0.98 c0 0.2 -0.1 0.3 -0.3 0.3 z M299.8505 11.94 c2.2 0.48 4.44 1.2 4.44 4.06 c0 2.66 -1.38 4.1 -4.02 4.1 l-1.48 0 c-2.52 0 -3.9 -1.36 -4.02 -3.82 c0 -0.22 0.12 -0.34 0.34 -0.34 l1.04 0 c0.22 0 0.36 0.12 0.36 0.34 c0.08 1.58 0.76 2.24 2.28 2.24 l1.48 0 c1.62 0 2.28 -0.68 2.28 -2.52 s-1.24 -2.1 -2.74 -2.46 l-0.88 -0.2 c-2.36 -0.52 -4 -1.26 -4 -3.8 c0 -2.48 1.42 -3.64 4.04 -3.64 l0.98 0 c2.48 0 3.8 1.36 3.92 3.76 c0.02 0.22 -0.12 0.34 -0.34 0.34 l-1.04 0 c-0.2 0 -0.34 -0.12 -0.36 -0.34 c-0.08 -1.54 -0.72 -2.18 -2.18 -2.18 l-0.98 0 c-1.6 0 -2.3 0.38 -2.3 2.06 c0 1.62 0.72 1.84 2.3 2.2 z M313.297 6.300000000000001 c0 -0.2 0.1 -0.3 0.3 -0.3 l1.16 0 c0.2 0 0.3 0.1 0.3 0.3 l0 13.4 c0 0.2 -0.1 0.3 -0.3 0.3 l-1.16 0 c-0.2 0 -0.3 -0.1 -0.3 -0.3 l0 -13.4 z M333.6035 12.54 c0.22 0 0.34 0.14 0.34 0.34 l0 3.06 c0 2.66 -1.38 4.16 -4.02 4.16 l-1.54 0 c-2.64 0 -4.02 -1.5 -4.02 -4.16 l0 -5.88 c0 -2.66 1.38 -4.16 4.02 -4.16 l1.54 0 c2.52 0 3.9 1.36 4.02 3.88 c0 0.22 -0.12 0.34 -0.34 0.34 l-1.04 0 c-0.22 0 -0.36 -0.12 -0.36 -0.34 c-0.08 -1.64 -0.78 -2.3 -2.28 -2.3 l-1.54 0 c-1.62 0 -2.28 0.74 -2.28 2.58 l0 5.88 c0 1.84 0.66 2.58 2.28 2.58 l1.54 0 c1.62 0 2.28 -0.74 2.28 -2.58 l0 -1.9 l-1.84 0 c-0.22 0 -0.34 -0.14 -0.34 -0.34 l0 -0.82 c0 -0.2 0.12 -0.34 0.34 -0.34 l3.24 0 z M352.31000000000006 6 c0.2 0 0.3 0.1 0.3 0.3 l0 13.4 c0 0.2 -0.1 0.3 -0.3 0.3 l-1.76 0 c-0.16 0 -0.28 -0.06 -0.36 -0.22 l-5.2 -11.24 l0 11.16 c0 0.2 -0.1 0.3 -0.3 0.3 l-1.14 0 c-0.2 0 -0.3 -0.1 -0.3 -0.3 l0 -13.4 c0 -0.2 0.1 -0.3 0.3 -0.3 l1.76 0 c0.16 0 0.28 0.06 0.36 0.22 l5.2 11.22 l0 -11.14 c0 -0.2 0.1 -0.3 0.3 -0.3 l1.14 0 z M380.183 6 c2.6 0 3.96 1.46 3.96 4 l0 1.2 c0 2.54 -1.36 4 -3.96 4 l-3.42 0 l0 4.5 c0 0.2 -0.1 0.3 -0.3 0.3 l-1.14 0 c-0.2 0 -0.3 -0.1 -0.3 -0.3 l0 -13.4 c0 -0.2 0.1 -0.3 0.3 -0.3 l1.14 0 l3.72 0 z M382.403 11.2 l0 -1.2 c0 -1.78 -0.66 -2.42 -2.22 -2.42 l-3.42 0 l0 6.04 l3.42 0 c1.56 0 2.22 -0.64 2.22 -2.42 z M401.7495 19.66 c0.08 0.22 -0.04 0.34 -0.24 0.34 l-1.12 0 c-0.2 0 -0.3 -0.12 -0.38 -0.34 l-0.76 -2.6 l-5.28 0 l-0.76 2.6 c-0.06 0.22 -0.18 0.34 -0.38 0.34 l-1.12 0 c-0.2 0 -0.3 -0.12 -0.24 -0.34 l4.04 -13.34 c0.06 -0.2 0.2 -0.32 0.38 -0.32 l1.42 0 c0.18 0 0.32 0.12 0.38 0.32 z M394.4095 15.54 l4.4 0 l-2.2 -7.42 z M418.476 6 c0.2 0 0.3 0.1 0.3 0.3 l0 0.98 c0 0.2 -0.1 0.3 -0.3 0.3 l-3.16 0 l0 12.12 c0 0.2 -0.1 0.3 -0.3 0.3 l-1.14 0 c-0.2 0 -0.3 -0.1 -0.3 -0.3 l0 -12.12 l-3.18 0 c-0.2 0 -0.3 -0.1 -0.3 -0.3 l0 -0.98 c0 -0.2 0.1 -0.3 0.3 -0.3 l4.62 0 l3.46 0 z M435.7825 6 c0.2 0 0.3 0.1 0.3 0.3 l0 0.98 c0 0.2 -0.1 0.3 -0.3 0.3 l-3.16 0 l0 12.12 c0 0.2 -0.1 0.3 -0.3 0.3 l-1.14 0 c-0.2 0 -0.3 -0.1 -0.3 -0.3 l0 -12.12 l-3.18 0 c-0.2 0 -0.3 -0.1 -0.3 -0.3 l0 -0.98 c0 -0.2 0.1 -0.3 0.3 -0.3 l4.62 0 l3.46 0 z M452.84900000000005 7.58 l-6.02 0 l0 4.76 l4.6 0 c0.2 0 0.3 0.1 0.3 0.3 l0 0.98 c0 0.2 -0.1 0.3 -0.3 0.3 l-4.6 0 l0 4.5 l6.12 0 c0.2 0 0.3 0.1 0.3 0.3 l0 0.98 c0 0.2 -0.1 0.3 -0.3 0.3 l-7.56 0 c-0.2 0 -0.3 -0.1 -0.3 -0.3 l0 -13.4 c0 -0.2 0.1 -0.3 0.3 -0.3 l7.46 0 c0.2 0 0.3 0.1 0.3 0.3 l0 0.98 c0 0.2 -0.1 0.3 -0.3 0.3 z M471.7355 19.6 c0.1 0.24 -0.02 0.4 -0.28 0.4 l-1.12 0 c-0.18 0 -0.34 -0.08 -0.4 -0.26 l-2.02 -4.56 c-0.16 0.02 -0.32 0.02 -0.5 0.02 l-3.42 0 l0 4.5 c0 0.2 -0.1 0.3 -0.3 0.3 l-1.14 0 c-0.2 0 -0.3 -0.1 -0.3 -0.3 l0 -13.4 c0 -0.2 0.1 -0.3 0.3 -0.3 l1.14 0 l3.72 0 c2.6 0 3.96 1.4 3.96 4 l0 1.2 c0 1.74 -0.62 2.96 -1.82 3.56 z M463.99550000000005 13.620000000000001 l3.42 0 c1.56 0 2.22 -0.64 2.22 -2.42 l0 -1.2 c0 -1.78 -0.66 -2.42 -2.22 -2.42 l-3.42 0 l0 6.04 z M489.84200000000004 6 c0.2 0 0.3 0.1 0.3 0.3 l0 13.4 c0 0.2 -0.1 0.3 -0.3 0.3 l-1.76 0 c-0.16 0 -0.28 -0.06 -0.36 -0.22 l-5.2 -11.24 l0 11.16 c0 0.2 -0.1 0.3 -0.3 0.3 l-1.14 0 c-0.2 0 -0.3 -0.1 -0.3 -0.3 l0 -13.4 c0 -0.2 0.1 -0.3 0.3 -0.3 l1.76 0 c0.16 0 0.28 0.06 0.36 0.22 l5.2 11.22 l0 -11.14 c0 -0.2 0.1 -0.3 0.3 -0.3 l1.14 0 z M504.4285000000001 11.94 c2.2 0.48 4.44 1.2 4.44 4.06 c0 2.66 -1.38 4.1 -4.02 4.1 l-1.48 0 c-2.52 0 -3.9 -1.36 -4.02 -3.82 c0 -0.22 0.12 -0.34 0.34 -0.34 l1.04 0 c0.22 0 0.36 0.12 0.36 0.34 c0.08 1.58 0.76 2.24 2.28 2.24 l1.48 0 c1.62 0 2.28 -0.68 2.28 -2.52 s-1.24 -2.1 -2.74 -2.46 l-0.88 -0.2 c-2.36 -0.52 -4 -1.26 -4 -3.8 c0 -2.48 1.42 -3.64 4.04 -3.64 l0.98 0 c2.48 0 3.8 1.36 3.92 3.76 c0.02 0.22 -0.12 0.34 -0.34 0.34 l-1.04 0 c-0.2 0 -0.34 -0.12 -0.36 -0.34 c-0.08 -1.54 -0.72 -2.18 -2.18 -2.18 l-0.98 0 c-1.6 0 -2.3 0.38 -2.3 2.06 c0 1.62 0.72 1.84 2.3 2.2 z"></path></g></svg>